<svg xmlns="http://www.w3.org/2000/svg" width="48" height="48" viewBox="0 0 48 48" fill="none">
  <!-- Brain + Circuit Nodes — Dev Memory Ledger -->
  <!-- Left hemisphere -->
  <path d="M24 6C16 6 10 12 10 20c0 4 1.5 7.5 4 10l-2 8h8l2-4h4l2 4h8l-2-8c2.5-2.5 4-6 4-10 0-8-6-14-14-14z" fill="#2563eb" opacity="0.15"/>
  <path d="M24 6C16 6 10 12 10 20c0 4 1.5 7.5 4 10l-2 8h8l2-4h4l2 4h8l-2-8c2.5-2.5 4-6 4-10 0-8-6-14-14-14z" stroke="#2563eb" stroke-width="2" fill="none" stroke-linejoin="round"/>
  <!-- Center divide -->
  <line x1="24" y1="8" x2="24" y2="34" stroke="#2563eb" stroke-width="1.5" stroke-dasharray="2 2" opacity="0.4"/>
  <!-- Circuit nodes — left -->
  <circle cx="16" cy="16" r="2.5" fill="#3b82f6"/>
  <circle cx="18" cy="24" r="2.5" fill="#3b82f6"/>
  <circle cx="16" cy="30" r="2" fill="#3b82f6"/>
  <!-- Circuit nodes — right -->
  <circle cx="32" cy="16" r="2.5" fill="#3b82f6"/>
  <circle cx="30" cy="24" r="2.5" fill="#3b82f6"/>
  <circle cx="32" cy="30" r="2" fill="#3b82f6"/>
  <!-- Central node -->
  <circle cx="24" cy="20" r="3" fill="#2563eb"/>
  <!-- Connections -->
  <line x1="16" y1="16" x2="24" y2="20" stroke="#3b82f6" stroke-width="1.5" opacity="0.7"/>
  <line x1="32" y1="16" x2="24" y2="20" stroke="#3b82f6" stroke-width="1.5" opacity="0.7"/>
  <line x1="18" y1="24" x2="24" y2="20" stroke="#3b82f6" stroke-width="1.5" opacity="0.7"/>
  <line x1="30" y1="24" x2="24" y2="20" stroke="#3b82f6" stroke-width="1.5" opacity="0.7"/>
  <line x1="16" y1="16" x2="18" y2="24" stroke="#3b82f6" stroke-width="1" opacity="0.5"/>
  <line x1="32" y1="16" x2="30" y2="24" stroke="#3b82f6" stroke-width="1" opacity="0.5"/>
  <line x1="18" y1="24" x2="16" y2="30" stroke="#3b82f6" stroke-width="1" opacity="0.5"/>
  <line x1="30" y1="24" x2="32" y2="30" stroke="#3b82f6" stroke-width="1" opacity="0.5"/>
</svg>
